PathFileType	4	(X/Y/Z)	C:\Users\86182\Documents\cortex\Trimmed_M1_H6.trc
DataRate	CameraRate	NumFrames	NumMarkers	Units	OrigDataRate	OrigDataStartFrame	OrigNumFrames
100.00	100.00	       158	2	mm	100.00	1	       951
Frame#	Time	gripper			box			
		X1	Y1	Z1	X2	Y2	Z2	

1	0.000	223.25571	203.43637	184.75836	232.98808	201.49849	44.92383	
2	0.010	223.20033	203.42747	184.78711	232.99098	201.50768	44.92980	
3	0.020	223.22699	203.42261	184.77171	232.98152	201.50441	44.92863	
4	0.030	223.23586	203.46339	184.77654	232.94601	201.48073	44.97379	
5	0.040	223.27104	203.44890	184.75172	232.94971	201.47736	44.97913	
6	0.050	223.18837	203.43004	184.79695	233.03075	201.52647	44.90832	
7	0.060	223.20963	203.41446	184.77766	233.05237	201.53992	44.86111	
8	0.070	223.27263	203.44472	184.74754	232.98317	201.49869	44.96127	
9	0.080	223.19263	203.42160	184.79283	233.01730	201.51869	44.92291	
10	0.090	223.12561	203.44211	184.83655	232.93677	201.47214	45.01005	
11	0.100	223.23801	203.42802	184.76488	232.96577	201.49010	44.95353	
12	0.110	223.21501	203.41689	184.77699	232.98383	201.50325	44.93899	
13	0.120	223.24339	203.44238	184.76480	232.93982	201.47559	44.99808	
14	0.130	223.15196	203.46013	184.82585	232.96339	201.49922	44.97889	
15	0.140	223.27403	203.45605	184.74591	233.04338	201.53322	44.89760	
16	0.150	223.13023	203.43358	184.83356	232.95097	201.48453	44.97317	
17	0.160	223.12987	203.43346	184.83321	232.96973	201.49277	44.95674	
18	0.170	223.17065	203.43730	184.80922	232.93958	201.47139	44.98104	
19	0.180	223.17709	203.42458	184.80293	232.92157	201.50143	45.00352	
20	0.190	223.24182	203.45065	184.76772	232.99858	201.50871	44.93886	
21	0.200	223.21828	203.47809	184.78708	232.95216	201.48216	44.98761	
22	0.210	223.16420	203.44887	184.80869	232.93764	201.47682	44.98756	
23	0.220	223.21663	203.45871	184.78477	232.99812	201.51208	44.92062	
24	0.230	223.20760	203.44148	184.78514	232.95016	201.47987	44.99558	
25	0.240	223.21600	203.45947	184.78288	233.04457	201.53868	44.87173	
26	0.250	223.11739	203.43533	184.83650	233.00925	201.51335	44.89699	
27	0.260	223.22441	203.42659	184.77301	232.99965	201.50220	44.93628	
28	0.270	223.20984	203.41441	184.77942	232.98482	201.50438	44.93507	
29	0.280	223.23401	203.45215	184.77278	232.89497	201.49286	45.00911	
30	0.290	223.23083	203.42961	184.77069	232.94116	201.47697	44.97447	
31	0.300	223.09865	203.43965	184.85419	232.98512	201.50093	44.95339	
32	0.310	223.29776	203.46706	184.73944	232.98941	201.50201	44.95596	
33	0.320	223.23038	203.44507	184.77423	232.97571	201.49773	44.95210	
34	0.330	223.15260	203.44464	184.81889	232.93503	201.46240	44.99961	
35	0.340	223.19072	203.40581	184.78137	232.96216	201.51170	44.94202	
36	0.350	223.22755	203.43398	184.77373	232.96030	201.48770	44.97450	
37	0.360	223.18106	203.45840	184.80428	232.96910	201.49780	44.93918	
38	0.370	223.28966	203.45305	184.73758	233.03862	201.52763	44.91731	
39	0.380	223.16718	203.43030	184.81058	232.93579	201.47101	45.01400	
40	0.390	223.20984	203.41441	184.77942	232.99232	201.50539	44.94413	
41	0.400	223.09503	203.44006	184.85019	232.99525	201.50876	44.93234	
42	0.410	223.33589	203.47530	184.71497	232.97142	201.49664	44.94953	
43	0.420	223.16025	203.42772	184.81320	233.01718	201.52644	44.88283	
44	0.430	223.19475	203.42473	184.79053	232.96205	201.48393	44.96863	
45	0.440	223.10680	203.44543	184.84813	232.96355	201.48761	44.98109	
46	0.450	223.24374	203.44637	184.76573	232.99615	201.50984	44.92846	
47	0.460	223.18555	203.40382	184.77745	232.90295	201.45592	45.02945	
48	0.470	223.17221	203.44061	184.79980	232.96979	201.49095	44.97578	
49	0.480	223.19411	203.41743	184.78687	233.01389	201.51871	44.91644	
50	0.490	223.11714	203.41187	184.83157	232.94815	201.47758	45.00352	
51	0.500	223.20334	203.44258	184.78996	233.02222	201.51643	44.94389	
52	0.510	223.19263	203.42160	184.79283	233.01012	201.52206	44.89198	
53	0.520	223.16806	203.45241	184.80898	232.99663	201.50647	44.94673	
54	0.530	223.14342	203.43822	184.82004	232.94698	201.48000	44.98893	
55	0.540	223.20523	203.43001	184.78252	232.92459	201.46390	45.01993	
56	0.550	223.14586	203.43057	184.82335	232.95016	201.47987	44.99558	
57	0.560	223.20984	203.41441	184.77942	232.98903	201.50542	44.93768	
58	0.570	223.18904	203.44882	184.79778	232.95535	201.48204	44.99427	
59	0.580	223.19913	203.45107	184.79460	233.01196	201.51645	44.92434	
60	0.590	223.14113	203.42317	184.81174	232.97894	201.49765	44.95863	
61	0.600	223.16695	203.43034	184.80882	233.02950	201.52094	44.93453	
62	0.610	223.17924	203.44720	184.80005	232.98268	201.51373	44.94068	
63	0.620	223.16763	203.44907	184.81053	232.95314	201.48329	44.98366	
64	0.630	223.25478	203.44797	184.75784	232.99760	201.50758	44.94278	
65	0.640	223.13441	203.42845	184.82526	232.99884	201.50708	44.93820	
66	0.650	223.21942	203.42407	184.77672	232.96030	201.48770	44.97450	
67	0.660	223.17393	203.42900	184.79718	232.97499	201.50449	44.91589	
68	0.670	223.19646	203.41318	184.78612	232.96875	201.48978	44.97978	
69	0.680	223.19701	203.40840	184.78360	232.97894	201.49765	44.95863	
70	0.690	223.17464	203.42386	184.79822	232.98090	201.49989	44.95075	
71	0.700	223.20763	203.43408	184.78584	232.99332	201.50650	44.94021	
72	0.710	223.17590	203.45554	184.81168	232.96458	201.48878	44.97707	
73	0.720	223.24597	203.44958	184.76294	232.90938	201.48166	45.01571	
74	0.730	223.13928	203.44333	184.82970	232.96355	201.48761	44.98109	
75	0.740	223.12085	203.37274	184.80843	232.99525	201.50876	44.93234	
76	0.750	223.06056	203.36487	184.83809	232.92885	201.46494	45.02262	
77	0.760	223.02478	203.33281	184.84189	232.89680	201.44321	45.03554	
78	0.770	222.99762	203.31514	184.84743	232.91013	201.45042	44.98508	
79	0.780	222.97258	203.30331	184.85698	232.90512	201.44298	45.00425	
80	0.790	223.03487	203.39433	184.86501	232.90303	201.44064	45.01226	
81	0.800	222.84512	203.42860	184.97891	232.91068	201.44543	44.98295	
82	0.810	222.67969	203.40594	185.05557	232.89928	201.44220	45.02629	
83	0.820	222.55951	203.36055	185.10175	232.90941	201.45535	44.98725	
84	0.830	222.55951	203.36055	185.10175	232.90178	201.45065	45.01626	
85	0.840	222.52740	203.34108	185.16707	232.93047	201.47597	44.97836	
86	0.850	222.57191	203.35796	185.20192	232.91110	201.46506	44.99788	
87	0.860	222.58667	203.34052	185.29944	232.89063	201.44574	45.05852	
88	0.870	222.73100	203.24866	185.36398	232.89993	201.45612	45.02274	
89	0.880	222.71799	203.25040	185.51067	232.78427	201.38870	45.15073	
90	0.890	222.67256	203.21521	185.70006	232.66321	201.32529	45.24791	
91	0.900	222.81885	203.18660	185.95238	232.66884	201.32671	44.89772	
92	0.910	222.94717	203.23320	186.08466	232.68106	201.32162	44.85154	
93	0.920	222.86429	203.25589	186.27559	232.68106	201.32162	44.85154	
94	0.930	223.29448	203.12360	186.43239	232.52963	201.52751	44.72905	
95	0.940	223.10925	203.10252	186.86267	232.12375	201.51065	44.87726	
96	0.950	222.49611	203.21649	187.38052	231.65282	201.57399	45.09745	
97	0.960	222.47372	203.21149	187.80759	231.63919	201.62712	45.02371	
98	0.970	222.76675	203.27039	188.05563	231.71249	201.68936	45.05224	
99	0.980	222.82852	203.23050	188.35457	231.79950	201.72011	45.04905	
100	0.990	222.58134	203.22815	188.65317	231.68689	201.65671	45.16187	
101	1.000	223.01543	203.18657	189.37541	231.71996	201.65028	45.46683	
102	1.010	222.86708	203.32791	189.82835	231.08406	201.66174	46.15019	
103	1.020	222.78694	203.27834	190.28152	231.63866	201.86203	46.17361	
104	1.030	222.50685	203.29039	190.70975	231.63136	201.74330	46.37770	
105	1.040	222.84366	203.25865	191.04547	231.03937	201.81073	46.89043	
106	1.050	222.76611	203.27988	191.58197	231.33118	201.91422	46.91380	
107	1.060	223.03197	203.33322	191.96236	231.26869	201.87119	47.01732	
108	1.070	222.74318	203.39561	192.64713	231.33939	202.02452	47.15516	
109	1.080	222.70619	203.30388	192.94766	231.39398	202.03490	47.20668	
110	1.090	222.62302	203.42143	193.40106	231.36884	202.12025	47.51833	
111	1.100	222.74281	203.39153	193.98053	231.56096	201.94238	47.87613	
112	1.110	222.97412	203.34242	194.38037	231.58772	201.94217	47.92927	
113	1.120	222.75189	203.34261	194.77422	231.38179	201.96797	48.30014	
114	1.130	223.12283	203.43019	194.95177	231.42407	201.96896	48.37127	
115	1.140	222.86301	203.41824	195.57399	231.46822	201.98062	48.39570	
116	1.150	222.66052	203.38252	196.00513	231.16161	202.02806	48.71832	
117	1.160	222.77325	203.31224	196.43042	231.24767	202.06194	48.70814	
118	1.170	223.37578	203.45406	196.66367	231.25186	202.06334	48.70897	
119	1.180	223.22462	203.39119	197.29846	230.99960	202.05782	49.00892	
120	1.190	223.12073	203.32716	197.55795	231.16962	202.13016	48.96074	
121	1.200	222.84869	203.36469	197.94145	231.68002	202.10075	48.90362	
122	1.210	222.96338	203.46417	198.54788	231.67725	202.06909	49.00735	
123	1.220	223.26149	203.42259	199.08507	231.72182	202.08798	48.99501	
124	1.230	223.16190	203.35826	199.43459	231.88234	202.15056	48.97922	
125	1.240	223.34100	203.38040	199.63867	231.37816	202.17581	49.40455	
126	1.250	223.12059	203.39801	200.34860	231.28441	202.19147	49.61456	
127	1.260	222.71152	203.45969	200.92697	231.16544	202.07591	49.98913	
128	1.270	223.21465	203.46765	201.21220	231.31680	202.10901	50.11256	
129	1.280	223.40918	203.40268	201.60013	231.03600	202.32477	50.76995	
130	1.290	223.35321	203.44505	202.01125	230.73425	202.28986	51.26824	
131	1.300	223.15210	203.41190	202.37236	230.92680	202.28365	51.60449	
132	1.310	223.10075	203.42607	202.68457	230.81747	202.20589	52.12792	
133	1.320	222.72469	203.54417	203.40671	230.60828	202.31163	52.57819	
134	1.330	222.97984	203.39415	203.91602	230.44711	202.38895	52.85885	
135	1.340	223.06693	203.49065	204.14009	230.57884	202.23055	53.07438	
136	1.350	223.26682	203.40015	204.35854	230.95107	202.28844	53.73153	
137	1.360	223.22469	203.42299	204.98927	230.47139	202.30438	54.32973	
138	1.370	222.69824	203.45941	205.61217	230.77301	202.26907	54.38136	
139	1.380	222.97559	203.48042	205.82497	230.41766	202.19452	55.13508	
140	1.390	223.34756	203.54521	206.24860	230.61830	202.23711	55.20374	
141	1.400	223.56805	203.36942	206.71512	231.05922	202.31438	55.47284	
142	1.410	223.20178	203.33957	207.15080	230.87553	202.25398	56.10029	
143	1.420	223.06183	203.56085	207.55948	230.86879	202.30273	56.49721	
144	1.430	223.06645	203.52823	208.29741	230.89676	202.27075	56.82264	
145	1.440	223.24782	203.40703	208.69983	230.73689	202.39066	57.50611	
146	1.450	223.47862	203.45500	208.79710	230.94781	202.30714	57.69402	
147	1.460	223.59917	203.51161	209.21201	230.84650	202.40259	57.99832	
148	1.470	223.16051	203.49884	210.03307	230.17264	202.35173	58.93483	
149	1.480	222.88087	203.55733	210.46236	230.33952	202.44885	59.33725	
150	1.490	223.09532	203.53368	210.67459	230.44592	202.42957	59.66032	
151	1.500	223.45380	203.53217	211.02071	230.36847	202.48225	59.87793	
152	1.510	223.53575	203.43700	211.54108	230.49147	202.18903	60.29084	
153	1.520	222.68239	203.60826	212.11617	230.56871	202.24805	60.45793	
154	1.530	222.43575	203.47937	212.39168	230.09546	202.19630	61.03250	
155	1.540	222.57042	203.33286	213.08092	229.88028	202.18011	61.89992	
156	1.550	222.81055	203.26788	213.42453	229.31311	202.07877	62.54782	
157	1.560	223.19424	203.27745	213.66574	229.55856	202.12781	62.68663	
158	1.570	222.26405	203.19525	214.32100	229.99484	202.07927	62.96817	
